HIERARCHY
ROOT hip
{
  OFFSET 0 0 0
  CHANNELS 6 Xposition Yposition Zposition Zrotation Yrotation Xrotation
  JOINT abdomen
  {
    OFFSET 0 20.6881 -0.73152
    CHANNELS 3 Zrotation Xrotation Yrotation
    JOINT chest
    {
      OFFSET 0 11.7043 -0.48768
      CHANNELS 3 Zrotation Xrotation Yrotation
      JOINT neck
      {
        OFFSET 0 22.1894 -2.19456
        CHANNELS 3 Zrotation Xrotation Yrotation
        JOINT head
        {
          OFFSET -0.24384 7.07133 1.2192
          CHANNELS 3 Zrotation Xrotation Yrotation
          JOINT leftEye
          {
            OFFSET 4.14528 8.04674 8.04672
            CHANNELS 3 Zrotation Xrotation Yrotation
            End Site
            {
              OFFSET 1 0 0
            }
          }
          JOINT rightEye
          {
            OFFSET -3.6576 8.04674 8.04672
            CHANNELS 3 Zrotation Xrotation Yrotation
            End Site
            {
              OFFSET 1 0 0
            }
          }
        }
      }
      JOINT rCollar
      {
        OFFSET -2.68224 19.2634 -4.8768
        CHANNELS 3 Zrotation Xrotation Yrotation
        JOINT rShldr
        {
          OFFSET -8.77824 -1.95073 1.46304
          CHANNELS 3 Zrotation Xrotation Yrotation
          JOINT rForeArm
          {
            OFFSET -28.1742 -1.7115 0.48768
            CHANNELS 3 Zrotation Xrotation Yrotation
            JOINT rHand
            {
              OFFSET -22.5879 0.773209 7.07136
              CHANNELS 3 Zrotation Xrotation Yrotation
              JOINT rThumb1
              {
                OFFSET -1.2192 -0.487915 3.41376
                CHANNELS 3 Zrotation Xrotation Yrotation
                JOINT rThumb2
                {
                  OFFSET -3.37035 -0.52449 3.41376
                  CHANNELS 3 Zrotation Xrotation Yrotation
                  End Site
                  {
                    OFFSET -1.78271 -1.18214 1.43049
                  }
                }
              }
              JOINT rIndex1
              {
                OFFSET -7.75947 0.938293 5.60832
                CHANNELS 3 Zrotation Xrotation Yrotation
                JOINT rIndex2
                {
                  OFFSET -2.54057 -0.884171 1.56538
                  CHANNELS 3 Zrotation Xrotation Yrotation
                  End Site
                  {
                    OFFSET -1.62519 -0.234802 1.16502
                  }
                }
              }
              JOINT rMid1
              {
                OFFSET -8.24714 1.18213 3.41376
                CHANNELS 3 Zrotation Xrotation Yrotation
                JOINT rMid2
                {
                  OFFSET -3.10165 -0.590103 1.0647
                  CHANNELS 3 Zrotation Xrotation Yrotation
                  End Site
                  {
                    OFFSET -2.48547 -0.328903 0.83742
                  }
                }
              }
              JOINT rRing1
              {
                OFFSET -8.82822 0.546677 1.51678
                CHANNELS 3 Zrotation Xrotation Yrotation
                JOINT rRing2
                {
                  OFFSET -2.60934 -0.819778 -0.0198488
                  CHANNELS 3 Zrotation Xrotation Yrotation
                  End Site
                  {
                    OFFSET -2.33842 -0.294052 0.168128
                  }
                }
              }
              JOINT rPinky1
              {
                OFFSET -8.27202 -0.0477905 -0.4584
                CHANNELS 3 Zrotation Xrotation Yrotation
                JOINT rPinky2
                {
                  OFFSET -1.82734 -0.647385 -0.700984
                  CHANNELS 3 Zrotation Xrotation Yrotation
                  End Site
                  {
                    OFFSET -1.69225 -0.51767 -0.607171
                  }
                }
              }
            }
          }
        }
      }
      JOINT lCollar
      {
        OFFSET 2.68224 19.2634 -4.8768
        CHANNELS 3 Zrotation Xrotation Yrotation
        JOINT lShldr
        {
          OFFSET 8.77824 -1.95073 1.46304
          CHANNELS 3 Zrotation Xrotation Yrotation
          JOINT lForeArm
          {
            OFFSET 28.1742 -1.7115 0.48768
            CHANNELS 3 Zrotation Xrotation Yrotation
            JOINT lHand
            {
              OFFSET 22.5879 0.773209 7.07136
              CHANNELS 3 Zrotation Xrotation Yrotation
              JOINT lThumb1
              {
                OFFSET 1.2192 -0.487915 3.41376
                CHANNELS 3 Zrotation Xrotation Yrotation
                JOINT lThumb2
                {
                  OFFSET 3.37035 -0.52449 3.41376
                  CHANNELS 3 Zrotation Xrotation Yrotation
                  End Site
                  {
                    OFFSET 1.78271 -1.18214 1.43049
                  }
                }
              }
              JOINT lIndex1
              {
                OFFSET 7.75947 0.938293 5.60832
                CHANNELS 3 Zrotation Xrotation Yrotation
                JOINT lIndex2
                {
                  OFFSET 2.54057 -0.884171 1.56538
                  CHANNELS 3 Zrotation Xrotation Yrotation
                  End Site
                  {
                    OFFSET 1.62519 -0.234802 1.16502
                  }
                }
              }
              JOINT lMid1
              {
                OFFSET 8.24714 1.18213 3.41376
                CHANNELS 3 Zrotation Xrotation Yrotation
                JOINT lMid2
                {
                  OFFSET 3.10165 -0.590103 1.0647
                  CHANNELS 3 Zrotation Xrotation Yrotation
                  End Site
                  {
                    OFFSET 2.48547 -0.328903 0.83742
                  }
                }
              }
              JOINT lRing1
              {
                OFFSET 8.82822 0.546677 1.51678
                CHANNELS 3 Zrotation Xrotation Yrotation
                JOINT lRing2
                {
                  OFFSET 2.60934 -0.819778 -0.0198488
                  CHANNELS 3 Zrotation Xrotation Yrotation
                  End Site
                  {
                    OFFSET 2.33842 -0.294052 0.168128
                  }
                }
              }
              JOINT lPinky1
              {
                OFFSET 8.27202 -0.0477905 -0.4584
                CHANNELS 3 Zrotation Xrotation Yrotation
                JOINT lPinky2
                {
                  OFFSET 1.82734 -0.647385 -0.700984
                  CHANNELS 3 Zrotation Xrotation Yrotation
                  End Site
                  {
                    OFFSET 1.69225 -0.51767 -0.607171
                  }
                }
              }
            }
          }
        }
      }
    }
  }
  JOINT rButtock
  {
    OFFSET -8.77824 4.35084 1.2192
    CHANNELS 3 Zrotation Xrotation Yrotation
    JOINT rThigh
    {
      OFFSET 0 -1.70687 -2.19456
      CHANNELS 3 Zrotation Xrotation Yrotation
      JOINT rShin
      {
        OFFSET 0 -36.8199 0.73152
        CHANNELS 3 Zrotation Xrotation Yrotation
        JOINT rFoot
        {
          OFFSET 0.73152 -45.1104 -5.12064
          CHANNELS 3 Zrotation Xrotation Yrotation
          End Site
          {
            OFFSET -1.1221 -3.69964 12.103
          }
        }
      }
    }
  }
  JOINT lButtock
  {
    OFFSET 8.77824 4.35084 1.2192
    CHANNELS 3 Zrotation Xrotation Yrotation
    JOINT lThigh
    {
      OFFSET 0 -1.70687 -2.19456
      CHANNELS 3 Zrotation Xrotation Yrotation
      JOINT lShin
      {
        OFFSET 0 -36.8199 0.73152
        CHANNELS 3 Zrotation Xrotation Yrotation
        JOINT lFoot
        {
          OFFSET -0.73152 -45.1104 -5.12064
          CHANNELS 3 Zrotation Xrotation Yrotation
          End Site
          {
            OFFSET 1.1221 -3.69964 12.103
          }
        }
      }
    }
  }
}
MOTION
Frames:	6
Frame Time:	0.00833333
8.55009 83.9958 -147.626 0.0 0.0 0.0 -1.70022 -0.00276351 -0.046333 -0.469054 0.00196673 -0.0812258 3.66839e-14 7.95139e-16 8.44835e-16 1.10534e-13 9.54166e-15 2.55469e-15 -0.0 0.0 0.0 -0.0 0.0 0.0 1.85857e-14 1.12593e-17 4.96962e-16 3.88904e-13 3.29237e-16 1.07344e-14 6.66311e-12 -1.99679e-12 1.20861e-13 7.63992e-11 2.05022e-12 1.8161e-12 1.80184e-10 1.17263e-13 4.19833e-12 3.11166e-10 2.00375e-13 7.23258e-12 1.80191e-10 1.20464e-13 4.18561e-12 7.73091 5.47488 0.417314 1.80186e-10 1.17283e-13 4.19833e-12 2.90554 0.965183 0.102902 1.80195e-10 1.17184e-13 4.19515e-12 10.2786 0.731801 0.0259123 1.80185e-10 1.17283e-13 4.19833e-12 2.22167 -0.733487 -0.20892 1.83894e-14 1.2424e-17 1.98785e-16 3.86186e-13 1.30452e-16 9.1441e-15 6.68433e-12 2.00832e-12 7.31528e-14 7.63848e-11 -1.95614e-12 1.86699e-12 1.80202e-10 1.13436e-13 4.18561e-12 3.11207e-10 1.97194e-13 7.24053e-12 1.80199e-10 1.13307e-13 4.19515e-12 -7.73091 5.47488 -0.417314 1.80202e-10 1.13804e-13 4.18879e-12 -2.90554 0.965183 -0.102902 1.80193e-10 1.13605e-13 4.19118e-12 -10.2786 0.731801 -0.0259123 1.80207e-10 1.13705e-13 4.18561e-12 -2.22167 -0.733487 0.20892 -2.03217e-16 0.0 -3.88251e-19 -0.815161 -1.92421 -0.00353408 -0.00895522 -2.0786 -0.0737805 -0.474623 3.99777 0.134772 2.03217e-16 0.0 3.88251e-19 -1.7735 -6.84759 0.169528 -0.00326722 6.83971 -0.0864397 0.504617 0.00294209 -0.0573458
9.10323 82.3017 -146.813 2.2193 -1.9251 -1.9242 -2.57268 3.51904 -0.366269 0.0468856 -1.77411 -0.185947 -0.350793 -1.23224 -0.884195 0.175066 0.857835 -1.62514 -0.0 0.0 0.0 -0.0 0.0 0.0 -3.70577e-14 6.07696e-15 1.58973e-14 22.526 0.874732 0.706936 -3.3952 -1.40859 5.43968 0.00689587 1.84265 0.258484 4.78155e-10 1.59617e-10 -5.72551e-11 8.25267e-10 2.76618e-10 -1.01578e-10 4.7816e-10 1.5962e-10 -5.72672e-11 7.73091 5.47488 0.417314 4.78156e-10 1.59618e-10 -5.72543e-11 2.90554 0.965183 0.102902 4.78163e-10 1.59618e-10 -5.72566e-11 10.2786 0.731801 0.0259123 4.78154e-10 1.59618e-10 -5.72526e-11 2.22167 -0.733487 -0.20892 -3.72498e-14 6.07813e-15 1.56411e-14 -19.7978 7.69256 -3.1427 4.40594 -2.04029 -6.83969 -0.00806295 -1.99204 0.279352 4.51006e-10 6.14761e-10 3.44333e-10 7.77458e-10 1.06049e-09 5.97069e-10 4.51003e-10 6.14763e-10 3.44344e-10 -7.73091 5.47488 -0.417314 4.51006e-10 6.14763e-10 3.44335e-10 -2.90554 0.965183 -0.102902 4.50998e-10 6.14762e-10 3.44336e-10 -10.2786 0.731801 -0.0259123 4.5101e-10 6.14761e-10 3.44329e-10 -2.22167 -0.733487 0.20892 -2.03217e-16 0.0 -3.88251e-19 -1.39495 -11.6577 -0.654092 0.0486518 12.19 0.155833 -0.646233 2.09895 -2.19817 2.03217e-16 0.0 3.88251e-19 -3.82845 -6.92202 -0.0512787 -0.0807141 13.3255 -0.304149 0.643386 -3.94105 0.639773
9.07797 82.3653 -145.964 2.2869 -1.6968 -1.7468 -3.44975 7.25324 -0.686967 0.570427 -3.65231 -0.292301 -0.755292 -2.55739 -1.82154 0.413214 1.77507 -3.34882 -0.0 0.0 0.0 -0.0 0.0 0.0 -9.67916e-14 1.28755e-14 3.28927e-14 46.32 1.80258 1.47099 -6.69606 -2.85598 11.2024 -0.0039405 3.79528 0.533306 8.00826e-10 3.31766e-10 -1.29001e-10 1.38195e-09 5.74966e-10 -2.28395e-10 8.00829e-10 3.31769e-10 -1.29012e-10 7.73091 5.47488 0.417314 8.00826e-10 3.31767e-10 -1.28999e-10 2.90554 0.965183 0.102902 8.00831e-10 3.31768e-10 -1.29e-10 10.2786 0.731801 0.0259123 8.00825e-10 3.31769e-10 -1.28996e-10 2.22167 -0.733487 -0.20892 -9.69801e-14 1.28766e-14 3.26814e-14 -39.782 15.7446 -6.6501 8.53098 -4.09502 -14.0872 0.00458732 -4.09918 0.575991 7.45627e-10 1.28087e-09 7.16385e-10 1.28471e-09 2.20953e-09 1.24222e-09 7.45623e-10 1.28087e-09 7.16398e-10 -7.73091 5.47488 -0.417314 7.45627e-10 1.28087e-09 7.16386e-10 -2.90554 0.965183 -0.102902 7.4562e-10 1.28087e-09 7.16387e-10 -10.2786 0.731801 -0.0259123 7.4563e-10 1.28087e-09 7.16378e-10 -2.22167 -0.733487 0.20892 -2.03217e-16 0.0 -3.88251e-19 -2.25754 -21.9589 -1.44443 -0.0281907 27.4565 0.442769 -0.99576 0.0719419 -4.62964 2.03217e-16 0.0 3.88251e-19 -6.00276 -7.05981 -0.285625 -0.105177 20.2457 -0.551996 0.897804 -8.11812 1.39643
9.04964 82.4313 -145.132 2.3504 -1.5364 -1.5958 -4.19783 10.5612 -1.02137 1.0592 -5.32618 -0.396836 -1.16663 -3.6932 -2.65749 0.671117 2.56522 -4.87977 -0.0 0.0 0.0 -0.0 0.0 0.0 -1.48345e-13 1.82084e-14 4.66981e-14 67.5132 2.6226 2.12279 -9.39356 -4.07366 16.3566 -0.0293866 5.52749 0.778672 1.0741e-09 4.78617e-10 -1.80162e-10 1.85347e-09 8.29454e-10 -3.19199e-10 1.0741e-09 4.7862e-10 -1.80173e-10 7.73091 5.47488 0.417314 1.0741e-09 4.78618e-10 -1.8016e-10 2.90554 0.965183 0.102902 1.0741e-09 4.78619e-10 -1.8016e-10 10.2786 0.731801 0.0259123 1.07409e-09 4.78621e-10 -1.80155e-10 2.22167 -0.733487 -0.20892 -1.48528e-13 1.82096e-14 4.65257e-14 -56.693 22.788 -10.1422 11.785 -5.7727 -20.6153 0.0343546 -5.97556 0.842126 9.92615e-10 1.84406e-09 1.02463e-09 1.70996e-09 3.18107e-09 1.77673e-09 9.92611e-10 1.84406e-09 1.02464e-09 -7.73091 5.47488 -0.417314 9.92615e-10 1.84406e-09 1.02463e-09 -2.90554 0.965183 -0.102902 9.9261e-10 1.84406e-09 1.02463e-09 -10.2786 0.731801 -0.0259123 9.92618e-10 1.84406e-09 1.02462e-09 -2.22167 -0.733487 0.20892 -2.03217e-16 0.0 -3.88251e-19 -3.31413 -31.1076 -2.23647 -0.263135 40.7246 0.797555 -1.45227 -1.68196 -6.86195 2.03217e-16 0.0 3.88251e-19 -7.9401 -7.07056 -0.493102 -0.0713911 26.2955 -0.798905 1.21399 -11.8222 2.07347
8.98566 82.512 -144.304 2.4019 -1.509 -1.4801 -4.69632 12.8046 -1.37771 1.47348 -6.48929 -0.495628 -1.51064 -4.35917 -3.23487 0.87141 3.04593 -5.92441 -0.0 0.0 0.0 -0.0 0.0 0.0 -1.79445e-13 1.98771e-14 5.25288e-14 82.2528 3.1747 2.4919 -11.138 -4.86224 19.9537 -0.0555252 6.70906 0.947273 1.22386e-09 5.62223e-10 -1.79864e-10 2.11205e-09 9.74296e-10 -3.1997e-10 1.22386e-09 5.62226e-10 -1.79873e-10 7.73091 5.47488 0.417314 1.22386e-09 5.62225e-10 -1.7986e-10 2.90554 0.965183 0.102902 1.22386e-09 5.62226e-10 -1.7986e-10 10.2786 0.731801 0.0259123 1.22386e-09 5.62228e-10 -1.79854e-10 2.22167 -0.733487 -0.20892 -1.79621e-13 1.98785e-14 5.23798e-14 -67.873 27.581 -12.9228 13.8509 -6.8348 -25.2546 0.0653657 -7.27561 1.02811 1.12052e-09 2.14995e-09 1.17334e-09 1.93018e-09 3.70884e-09 2.03464e-09 1.12052e-09 2.14996e-09 1.17336e-09 -7.73091 5.47488 -0.417314 1.12052e-09 2.14995e-09 1.17334e-09 -2.90554 0.965183 -0.102902 1.12052e-09 2.14995e-09 1.17334e-09 -10.2786 0.731801 -0.0259123 1.12052e-09 2.14995e-09 1.17333e-09 -2.22167 -0.733487 0.20892 -2.03217e-16 0.0 -3.88251e-19 -4.23262 -37.3944 -2.74444 -0.549523 48.9997 1.13305 -1.85076 -2.77384 -8.58947 2.03217e-16 0.0 3.88251e-19 -9.28163 -6.76392 -0.632991 -0.0163822 30.1709 -0.989675 1.46868 -14.3509 2.51213
8.95672 82.6575 -143.472 2.524 -1.3524 -1.3049 -4.88542 13.5631 -1.74046 1.77421 -6.92696 -0.582254 -1.71498 -4.39898 -3.45809 0.944787 3.11215 -6.30799 -0.0 0.0 0.0 -0.0 0.0 0.0 -1.81795e-13 1.67887e-14 4.6226e-14 87.9928 3.30256 2.47592 -11.7834 -5.14952 21.3468 -0.0665408 7.11307 1.00523 1.1998e-09 5.75623e-10 -1.17955e-10 2.07089e-09 9.97406e-10 -2.12722e-10 1.1998e-09 5.75625e-10 -1.17962e-10 7.73091 5.47488 0.417314 1.19979e-09 5.75624e-10 -1.17951e-10 2.90554 0.965183 0.102902 1.1998e-09 5.75625e-10 -1.17951e-10 10.2786 0.731801 0.0259123 1.19979e-09 5.75628e-10 -1.17944e-10 2.22167 -0.733487 -0.20892 -1.81959e-13 1.67906e-14 4.60796e-14 -71.9924 29.4718 -14.2312 14.6745 -7.2674 -27.2147 0.0797768 -7.7815 1.10091 1.07427e-09 2.10395e-09 1.10215e-09 1.85048e-09 3.62975e-09 1.91121e-09 1.07426e-09 2.10396e-09 1.10217e-09 -7.73091 5.47488 -0.417314 1.07427e-09 2.10395e-09 1.10215e-09 -2.90554 0.965183 -0.102902 1.07426e-09 2.10395e-09 1.10215e-09 -10.2786 0.731801 -0.0259123 1.07427e-09 2.10395e-09 1.10214e-09 -2.22167 -0.733487 0.20892 -2.03217e-16 0.0 -3.88251e-19 -4.61494 -39.7182 -2.66889 -0.632417 50.2961 1.22213 -2.00119 -2.84332 -9.58341 2.03217e-16 0.0 3.88251e-19 -9.79631 -6.00654 -0.686764 0.00182084 30.9855 -1.06679 1.54369 -15.2382 2.60324
